<mxfile host="app.diagrams.net" modified="2022-02-08T14:18:56.115Z" agent="5.0 (Windows)" etag="lEPOQA5e0OpxeAlscGP8" version="14.8.6" type="github">
  <diagram id="6a731a19-8d31-9384-78a2-239565b7b9f0" name="Page-1">
    <mxGraphModel dx="2062" dy="1140" grid="1" gridSize="10" guides="1" tooltips="1" connect="1" arrows="1" fold="1" page="1" pageScale="1" pageWidth="827" pageHeight="1169" background="none" math="0" shadow="0">
      <root>
        <mxCell id="0" />
        <mxCell id="1" parent="0" />
        <mxCell id="BKb8fGDNYh2uaZJnE7EX-2260" value="" style="shape=mxgraph.cisco.people.androgenous_person;html=1;pointerEvents=1;dashed=0;fillColor=#036897;strokeColor=#ffffff;strokeWidth=2;verticalLabelPosition=bottom;verticalAlign=top;align=center;outlineConnect=0;" vertex="1" parent="1">
          <mxGeometry x="353" y="730" width="69" height="82" as="geometry" />
        </mxCell>
        <mxCell id="BKb8fGDNYh2uaZJnE7EX-2261" value="" style="shape=mxgraph.cisco.computers_and_peripherals.ibm_mainframe;html=1;pointerEvents=1;dashed=0;fillColor=#036897;strokeColor=#ffffff;strokeWidth=2;verticalLabelPosition=bottom;verticalAlign=top;align=center;outlineConnect=0;" vertex="1" parent="1">
          <mxGeometry x="353" y="90" width="50" height="70" as="geometry" />
        </mxCell>
        <mxCell id="BKb8fGDNYh2uaZJnE7EX-2262" value="" style="shape=mxgraph.cisco.hubs_and_gateways.generic_gateway;html=1;pointerEvents=1;dashed=0;fillColor=#036897;strokeColor=#ffffff;strokeWidth=2;verticalLabelPosition=bottom;verticalAlign=top;align=center;outlineConnect=0;" vertex="1" parent="1">
          <mxGeometry x="347" y="290" width="66" height="74" as="geometry" />
        </mxCell>
        <mxCell id="BKb8fGDNYh2uaZJnE7EX-2263" value="" style="ellipse;shape=cloud;whiteSpace=wrap;html=1;" vertex="1" parent="1">
          <mxGeometry x="318" y="510" width="120" height="80" as="geometry" />
        </mxCell>
        <mxCell id="BKb8fGDNYh2uaZJnE7EX-2268" value="" style="endArrow=none;html=1;entryX=0.55;entryY=0.95;entryDx=0;entryDy=0;entryPerimeter=0;" edge="1" parent="1" source="BKb8fGDNYh2uaZJnE7EX-2260" target="BKb8fGDNYh2uaZJnE7EX-2263">
          <mxGeometry width="50" height="50" relative="1" as="geometry">
            <mxPoint x="800" y="600" as="sourcePoint" />
            <mxPoint x="850" y="550" as="targetPoint" />
          </mxGeometry>
        </mxCell>
        <mxCell id="BKb8fGDNYh2uaZJnE7EX-2269" value="" style="endArrow=none;html=1;exitX=0.55;exitY=0.2;exitDx=0;exitDy=0;exitPerimeter=0;" edge="1" parent="1" source="BKb8fGDNYh2uaZJnE7EX-2263" target="BKb8fGDNYh2uaZJnE7EX-2262">
          <mxGeometry width="50" height="50" relative="1" as="geometry">
            <mxPoint x="800" y="600" as="sourcePoint" />
            <mxPoint x="850" y="550" as="targetPoint" />
          </mxGeometry>
        </mxCell>
        <mxCell id="BKb8fGDNYh2uaZJnE7EX-2270" value="" style="endArrow=none;html=1;" edge="1" parent="1" source="BKb8fGDNYh2uaZJnE7EX-2262" target="BKb8fGDNYh2uaZJnE7EX-2261">
          <mxGeometry width="50" height="50" relative="1" as="geometry">
            <mxPoint x="800" y="600" as="sourcePoint" />
            <mxPoint x="850" y="550" as="targetPoint" />
          </mxGeometry>
        </mxCell>
      </root>
    </mxGraphModel>
  </diagram>
</mxfile>
